<?xml version="1.0" encoding="UTF-8" standalone="no"?>
<!-- Created with Inkscape (http://www.inkscape.org/) -->

<svg
   width="93"
   height="93"
   viewBox="0 0 120 120"
   version="1.1"
   id="svg5"
   xml:space="preserve"
   xmlns="http://www.w3.org/2000/svg"
   xmlns:svg="http://www.w3.org/2000/svg"><defs
     id="defs2" /><g
     id="layer1"><g
       id="g7041"
       transform="matrix(1.1081907,0,0,1.1081907,292.18021,28.13892)"><path
         d="m -251.29702,24.89122 v 12.678072 c 27.4715,-18.439551 41.79396,-37.9832008 41.79396,-37.9832008 0,0 14.32244,19.5436498 41.79395,37.9832008 V 24.89122 c -29.40502,-21.7774368 -41.79395,-50.348984 -41.79395,-50.348984 0,0 -12.38894,28.5715472 -41.79396,50.348984 z"
         style="opacity:1;fill:#008000;stroke-width:1.27402"
         id="path3138" /><path
         d="M -167.72872,60.782194 V 48.104124 C -197.13374,26.32669 -209.52267,9.7551472 -209.52267,9.7551472 c 0,0 -12.38894,16.5715428 -41.79396,38.3489768 v 12.67807 c 27.47151,-18.439549 41.79396,-29.983192 41.79396,-29.983192 0,0 14.32245,11.543643 41.79395,29.983192 z"
         style="fill:#008000;stroke-width:1.27402"
         id="path3138-5-5" /><path
         d="m -168.56704,70.584119 v 12.374723 c -26.81419,-17.998349 -40.79395,-21.4572 -40.79395,-21.4572 0,0 -13.97976,3.458851 -40.79396,21.4572 V 70.584119 c 28.70145,-21.256363 40.79396,-29.622814 40.79396,-29.622814 0,0 12.09251,8.366451 40.79395,29.622814 z"
         style="fill:#008000;stroke-width:1.24354"
         id="path3138-5-5-2" /></g></g></svg>
