<?xml version="1.0" encoding="UTF-8" standalone="no"?>
<!-- Created with Inkscape (http://www.inkscape.org/) -->

<svg
   width="120"
   height="120"
   viewBox="0 0 120 120"
   version="1.1"
   id="svg5"
   xml:space="preserve"
   xmlns="http://www.w3.org/2000/svg"
   xmlns:svg="http://www.w3.org/2000/svg"><defs
     id="defs2" /><g
     id="layer1"><path
       id="path263"
       style="opacity:1;fill:#008000;stroke-width:1.27402"
       d="m 58.566226,0 c 0,0 -19.127146,43.578372 -46.81057,59.20746 v 60.26751 c 27.352976,-9.87705 46.81057,-27.366735 46.81057,-27.366735 0,0 15.722235,14.505425 47.131564,27.891765 V 59.20746 C 75.195616,39.904322 58.566226,0 58.566226,0 Z m 0,12.660652 c 0,0 11.810725,28.330456 41.256608,50.092687 V 75.391597 C 71.054342,55.219674 58.566226,33.704508 58.566226,33.704508 c 0,0 -13.782613,23.54365 -41.254116,41.983201 V 63.009637 C 46.717125,41.2322 58.566226,12.660652 58.566226,12.660652 Z m 0,31.512285 c 0,0 15.307783,23.416894 41.256608,38.111351 V 93.887395 C 71.296503,78.224892 58.566226,60.593463 58.566226,60.593463 c 0,0 -15.870918,20.090574 -41.254116,33.308863 V 82.398749 C 43.598554,66.875204 58.566225,44.172937 58.566226,44.172937 Z m 0,25.560184 c 0,0 16.712455,19.438675 41.256608,29.94961 V 111.34556 C 77.5556,101.80373 58.566226,84.630786 58.566226,84.630786 c 0,0 -15.854464,15.204121 -41.254116,26.916324 V 99.981334 C 38.649078,91.026693 58.566225,69.733121 58.566226,69.733121 Z" /></g></svg>
