<?xml version="1.0" encoding="UTF-8" standalone="no"?>
<!-- Created with Inkscape (http://www.inkscape.org/) -->

<svg
   width="228"
   height="93"
   viewBox="0 0 294.19375 120"
   version="1.1"
   id="svg5"
   xml:space="preserve"
   sodipodi:docname="named-icon-inversed.svg"
   inkscape:version="1.1.2 (0a00cf5339, 2022-02-04)"
   xmlns:inkscape="http://www.inkscape.org/namespaces/inkscape"
   xmlns:sodipodi="http://sodipodi.sourceforge.net/DTD/sodipodi-0.dtd"
   xmlns="http://www.w3.org/2000/svg"
   xmlns:svg="http://www.w3.org/2000/svg"><sodipodi:namedview
     id="namedview9"
     pagecolor="#ffffff"
     bordercolor="#666666"
     borderopacity="1.0"
     inkscape:pageshadow="2"
     inkscape:pageopacity="0.0"
     inkscape:pagecheckerboard="0"
     showgrid="false"
     height="200px"
     width="229px"
     inkscape:zoom="2.4482622"
     inkscape:cx="141.73319"
     inkscape:cy="65.148251"
     inkscape:window-width="1920"
     inkscape:window-height="1048"
     inkscape:window-x="3840"
     inkscape:window-y="0"
     inkscape:window-maximized="1"
     inkscape:current-layer="text3533" /><defs
     id="defs2" /><g
     aria-label="Serjeant"
     id="text3533"
     style="font-size:46.4516px;fill:#008000;stroke-width:1.29032"><g
       id="g230"><g
         id="layer1"
         transform="translate(-12.898117)"><g
           id="g7041"
           transform="matrix(1.1081907,0,0,1.1081907,292.18021,28.13892)"><path
             d="m -251.29702,24.89122 v 12.678072 c 27.4715,-18.439551 41.79396,-37.9832008 41.79396,-37.9832008 0,0 14.32244,19.5436498 41.79395,37.9832008 V 24.89122 c -29.40502,-21.7774368 -41.79395,-50.348984 -41.79395,-50.348984 0,0 -12.38894,28.5715472 -41.79396,50.348984 z"
             style="opacity:1;fill:#008000;stroke-width:1.27402"
             id="path3138" /><path
             d="M -167.72872,60.782194 V 48.104124 C -197.13374,26.32669 -209.52267,9.7551472 -209.52267,9.7551472 c 0,0 -12.38894,16.5715428 -41.79396,38.3489768 v 12.67807 c 27.47151,-18.439549 41.79396,-29.983192 41.79396,-29.983192 0,0 14.32245,11.543643 41.79395,29.983192 z"
             style="fill:#008000;stroke-width:1.27402"
             id="path3138-5-5" /><path
             d="m -168.56704,70.584119 v 12.374723 c -26.81419,-17.998349 -40.79395,-21.4572 -40.79395,-21.4572 0,0 -13.97976,3.458851 -40.79396,21.4572 V 70.584119 c 28.70145,-21.256363 40.79396,-29.622814 40.79396,-29.622814 0,0 12.09251,8.366451 40.79395,29.622814 z"
             style="fill:#008000;stroke-width:1.24354"
             id="path3138-5-5-2" /></g></g><g
         id="g214"
         transform="translate(0,15.483876)"><path
           d="m 119.31796,67.966446 q 1.5329,0 2.50839,-0.232258 1.02193,-0.278709 1.6258,-0.696774 0.60387,-0.464516 0.83613,-1.068387 0.23226,-0.60387 0.23226,-1.347096 0,-1.579354 -1.48645,-2.60129 -1.48645,-1.068386 -5.10968,-2.276128 -1.57935,-0.557419 -3.15871,-1.254193 -1.57935,-0.743226 -2.83354,-1.811612 -1.2542,-1.114839 -2.04387,-2.647742 -0.78968,-1.579354 -0.78968,-3.809031 0,-2.229677 0.83613,-3.994837 0.83613,-1.811613 2.36903,-3.065806 1.5329,-1.254193 3.71613,-1.904515 2.18322,-0.696774 4.92387,-0.696774 3.25161,0 5.62064,0.696774 2.36903,0.696774 3.90193,1.532902 l -2.09032,5.713547 q -1.34709,-0.696774 -3.01935,-1.207742 -1.62581,-0.557419 -3.94839,-0.557419 -2.60129,0 -3.76258,0.743226 -1.11484,0.696774 -1.11484,2.183225 0,0.88258 0.41807,1.486451 0.41806,0.603871 1.16129,1.114839 0.78968,0.464516 1.76516,0.88258 1.02194,0.371613 2.22968,0.789677 2.50838,0.929032 4.36645,1.858064 1.85806,0.882581 3.0658,2.090322 1.2542,1.207742 1.85807,2.833548 0.60387,1.625806 0.60387,3.948386 0,4.505805 -3.15871,7.014191 -3.15871,2.461935 -9.52258,2.461935 -2.13677,0 -3.85548,-0.27871 -1.71871,-0.232258 -3.06581,-0.603871 -1.30064,-0.371612 -2.27613,-0.789677 -0.92903,-0.418064 -1.57935,-0.789677 l 2.04387,-5.759998 q 1.44,0.789677 3.53032,1.439999 2.13678,0.603871 5.20258,0.603871 z"
           style="-inkscape-font-specification:'Ubuntu Bold'"
           id="path30946" /><path
           d="m 135.94758,61.463222 q 0,-3.251612 0.97548,-5.667095 1.02194,-2.461935 2.64774,-4.087741 1.62581,-1.625806 3.71613,-2.461934 2.13678,-0.836129 4.36645,-0.836129 5.20258,0 8.22194,3.20516 3.01935,3.158709 3.01935,9.336772 0,0.60387 -0.0464,1.347096 -0.0464,0.696774 -0.0929,1.254193 h -15.70064 q 0.23226,2.136774 1.99742,3.390967 1.76516,1.254193 4.73807,1.254193 1.90451,0 3.71612,-0.325161 1.85807,-0.371613 3.01936,-0.88258 l 0.92903,5.620643 q -0.55742,0.27871 -1.48645,0.557419 -0.92903,0.27871 -2.09032,0.464516 -1.11484,0.232258 -2.41549,0.371613 -1.30064,0.139355 -2.60129,0.139355 -3.29806,0 -5.75999,-0.975484 -2.41549,-0.975483 -4.04129,-2.647741 -1.57936,-1.718709 -2.36904,-4.041289 -0.74322,-2.32258 -0.74322,-5.016773 z m 16.25806,-2.647741 q -0.0464,-0.88258 -0.32516,-1.718709 -0.23226,-0.836129 -0.78968,-1.486451 -0.51097,-0.650323 -1.3471,-1.068387 -0.78967,-0.418064 -1.99741,-0.418064 -1.16129,0 -1.99742,0.418064 -0.83613,0.371613 -1.39355,1.021935 -0.55742,0.650323 -0.88258,1.532903 -0.27871,0.836129 -0.41807,1.718709 z"
           style="-inkscape-font-specification:'Ubuntu Bold'"
           id="path30948" /><path
           d="m 178.96174,55.192256 q -0.92903,-0.232258 -2.18322,-0.464516 -1.2542,-0.278709 -2.6942,-0.278709 -0.65032,0 -1.57935,0.139355 -0.88258,0.0929 -1.3471,0.232258 v 18.673542 h -6.92129 V 50.36129 q 1.85807,-0.650322 4.36645,-1.207742 2.55484,-0.60387 5.6671,-0.60387 0.55742,0 1.3471,0.0929 0.78967,0.04645 1.57935,0.185806 0.78968,0.0929 1.57935,0.27871 0.78968,0.139355 1.3471,0.371613 z"
           style="-inkscape-font-specification:'Ubuntu Bold'"
           id="path30950" /><path
           d="m 181.56299,82.087732 q -0.65033,0 -1.90452,-0.139355 -1.30064,-0.139354 -2.41548,-0.510967 l 0.92903,-5.620644 q 0.69677,0.232258 1.30064,0.325162 0.55742,0.0929 1.44,0.0929 1.62581,0 2.27613,-0.975484 0.65032,-0.975483 0.65032,-2.833547 V 49.060645 h 6.92129 v 23.550961 q 0,4.830966 -2.36903,7.153546 -2.36903,2.32258 -6.82838,2.32258 z m 9.84774,-40.08773 q 0,1.904516 -1.2542,3.019354 -1.20774,1.068387 -2.88,1.068387 -1.67225,0 -2.92645,-1.068387 -1.20774,-1.114838 -1.20774,-3.019354 0,-1.904515 1.20774,-2.972902 1.2542,-1.114839 2.92645,-1.114839 1.67226,0 2.88,1.114839 1.2542,1.068387 1.2542,2.972902 z"
           style="-inkscape-font-specification:'Ubuntu Bold'"
           id="path30952" /><path
           d="m 196.10232,61.463222 q 0,-3.251612 0.97548,-5.667095 1.02194,-2.461935 2.64774,-4.087741 1.62581,-1.625806 3.71613,-2.461934 2.13677,-0.836129 4.36645,-0.836129 5.20258,0 8.22193,3.20516 3.01936,3.158709 3.01936,9.336772 0,0.60387 -0.0464,1.347096 -0.0465,0.696774 -0.0929,1.254193 h -15.70064 q 0.23226,2.136774 1.99742,3.390967 1.76516,1.254193 4.73806,1.254193 1.90452,0 3.71613,-0.325161 1.85807,-0.371613 3.01936,-0.88258 l 0.92903,5.620643 q -0.55742,0.27871 -1.48645,0.557419 -0.92904,0.27871 -2.09033,0.464516 -1.11483,0.232258 -2.41548,0.371613 -1.30064,0.139355 -2.60129,0.139355 -3.29806,0 -5.76,-0.975484 -2.41548,-0.975483 -4.04129,-2.647741 -1.57935,-1.718709 -2.36903,-4.041289 -0.74322,-2.32258 -0.74322,-5.016773 z m 16.25806,-2.647741 q -0.0465,-0.88258 -0.32516,-1.718709 -0.23226,-0.836129 -0.78968,-1.486451 -0.51097,-0.650323 -1.3471,-1.068387 -0.78968,-0.418064 -1.99742,-0.418064 -1.16129,0 -1.99742,0.418064 -0.83612,0.371613 -1.39354,1.021935 -0.55742,0.650323 -0.88258,1.532903 -0.27871,0.836129 -0.41807,1.718709 z"
           style="-inkscape-font-specification:'Ubuntu Bold'"
           id="path30954" /><path
           d="m 233.72809,68.66322 q 1.02194,0 1.95097,-0.04645 0.92903,-0.04645 1.48645,-0.139354 v -5.249031 q -0.41806,-0.0929 -1.25419,-0.185806 -0.83613,-0.0929 -1.5329,-0.0929 -0.97549,0 -1.85807,0.139355 -0.83613,0.0929 -1.48645,0.418065 -0.65032,0.325161 -1.02193,0.88258 -0.37162,0.557419 -0.37162,1.393548 0,1.625806 1.06839,2.276128 1.11484,0.603871 3.01935,0.603871 z m -0.55742,-20.252897 q 3.06581,0 5.10968,0.696774 2.04387,0.696774 3.25161,1.997419 1.2542,1.300644 1.76516,3.158708 0.51097,1.858064 0.51097,4.134193 v 14.399995 q -1.48645,0.325162 -4.13419,0.743226 -2.64774,0.464516 -6.41032,0.464516 -2.36903,0 -4.32,-0.418064 -1.90452,-0.418065 -3.29806,-1.347097 -1.39355,-0.975483 -2.13678,-2.508386 -0.74322,-1.532903 -0.74322,-3.76258 0,-2.136773 0.83613,-3.623224 0.88258,-1.486452 2.32258,-2.369032 1.44,-0.88258 3.29806,-1.254193 1.85806,-0.418065 3.85548,-0.418065 1.3471,0 2.36903,0.139355 1.06839,0.0929 1.71871,0.27871 v -0.650323 q 0,-1.76516 -1.06838,-2.833547 -1.06839,-1.068387 -3.71613,-1.068387 -1.76516,0 -3.48387,0.27871 -1.71871,0.232258 -2.9729,0.696774 l -0.88258,-5.574192 q 0.60387,-0.185807 1.48645,-0.371613 0.92903,-0.232258 1.99742,-0.371613 1.06838,-0.185806 2.22967,-0.278709 1.20774,-0.139355 2.41548,-0.139355 z"
           style="-inkscape-font-specification:'Ubuntu Bold'"
           id="path30956" /><path
           d="m 250.07904,49.896774 q 1.76516,-0.510968 4.55225,-0.929032 2.7871,-0.464516 5.8529,-0.464516 3.11226,0 5.15613,0.836129 2.09032,0.789677 3.29807,2.276128 1.20774,1.486451 1.7187,3.530322 0.51097,2.04387 0.51097,4.552256 v 13.796125 h -6.92129 V 60.53419 q 0,-3.344515 -0.88258,-4.738063 -0.88258,-1.393548 -3.29806,-1.393548 -0.74323,0 -1.57935,0.0929 -0.83613,0.04645 -1.48646,0.139355 v 18.859349 h -6.92128 z"
           style="-inkscape-font-specification:'Ubuntu Bold'"
           id="path30958" /><path
           d="m 277.2067,42.975486 6.92129,-1.114839 v 7.199998 h 8.31484 v 5.759999 h -8.31484 v 8.593545 q 0,2.183226 0.74323,3.48387 0.78967,1.300645 3.11225,1.300645 1.11484,0 2.27613,-0.185806 1.20774,-0.232258 2.18323,-0.603871 l 0.97548,5.388385 q -1.25419,0.510968 -2.7871,0.882581 -1.5329,0.371613 -3.76257,0.371613 -2.83355,0 -4.69162,-0.743226 -1.85806,-0.789677 -2.9729,-2.136774 -1.11484,-1.393548 -1.57935,-3.344515 -0.41807,-1.950967 -0.41807,-4.319998 z"
           style="-inkscape-font-specification:'Ubuntu Bold'"
           id="path30960" /></g></g></g></svg>
