<?xml version="1.0" encoding="utf-8"?>
<!-- Generator: Adobe Illustrator 24.1.1, SVG Export Plug-In . SVG Version: 6.00 Build 0)  -->
<svg version="1.1" id="Livello_1" xmlns="http://www.w3.org/2000/svg" xmlns:xlink="http://www.w3.org/1999/xlink" x="0px" y="0px"
	 viewBox="0 0 36 36" style="enable-background:new 0 0 36 36;" xml:space="preserve">
<style type="text/css">
	.st0{fill:#FFFFFF;}
</style>
<g>
	<path class="st0" d="M36,9.2c0,0.9,0,1.8,0,2.7c0,4.7,0,9.3-0.1,14c0,0.4,0,0.8-0.1,1.2c-0.1,0.9-0.7,1.5-1.4,2
		c-0.4,0.3-1,0.5-1.5,0.5c-3.9,0-7.8,0.1-11.7,0.1c-5.2,0-10.4,0-15.6,0c-1.1,0-2.1-0.1-3.2-0.2c-0.5,0-1-0.3-1.3-0.7
		c-0.1-0.2-0.3-0.4-0.4-0.5c-0.3-0.4-0.5-0.9-0.5-1.5c0-4.1-0.1-8.3-0.1-12.4c0-1.6,0-3.3,0.1-4.9c0-0.1,0-0.2,0-0.4
		c0.2,0.1,0.4,0.2,0.5,0.3c3.1,1.9,6.2,3.9,9.3,5.8c2.4,1.5,4.8,2.9,7.1,4.4c0.7,0.4,1.3,0.4,1.9,0c3.3-2,6.7-4.1,10-6.1
		c2.2-1.3,4.4-2.7,6.6-4c0.1-0.1,0.2-0.1,0.3-0.2C35.9,9.1,36,9.2,36,9.2z"/>
	<path class="st0" d="M3.1,6.4c9.9-0.1,19.8-0.1,29.7,0c0,0,0,0.1,0,0.1c-0.2,0.1-0.4,0.2-0.5,0.4c-4.7,2.9-9.3,5.8-14,8.7
		c-0.3,0.2-0.4,0.2-0.7,0c-4.8-3-9.5-5.9-14.3-8.9C3.3,6.6,3.2,6.6,3.1,6.4C3.1,6.5,3.1,6.4,3.1,6.4z"/>
</g>
</svg>
