<?xml version="1.0" encoding="UTF-8" standalone="no"?>
<!-- Created with Inkscape (http://www.inkscape.org/) -->

<svg
   width="300"
   height="300"
   viewBox="0 0 79.374999 79.374999"
   version="1.1"
   id="svg5"
   inkscape:version="1.1.2 (0a00cf5339, 2022-02-04)"
   sodipodi:docname="docker.svg"
   xmlns:inkscape="http://www.inkscape.org/namespaces/inkscape"
   xmlns:sodipodi="http://sodipodi.sourceforge.net/DTD/sodipodi-0.dtd"
   xmlns="http://www.w3.org/2000/svg"
   xmlns:svg="http://www.w3.org/2000/svg">
  <sodipodi:namedview
     id="namedview7"
     pagecolor="#ffffff"
     bordercolor="#666666"
     borderopacity="1.0"
     inkscape:pageshadow="2"
     inkscape:pageopacity="0.0"
     inkscape:pagecheckerboard="0"
     inkscape:document-units="px"
     showgrid="false"
     units="px"
     width="300px"
     inkscape:zoom="1.1474186"
     inkscape:cx="88.895192"
     inkscape:cy="166.89637"
     inkscape:window-width="1920"
     inkscape:window-height="1048"
     inkscape:window-x="1920"
     inkscape:window-y="0"
     inkscape:window-maximized="1"
     inkscape:current-layer="layer1" />
  <defs
     id="defs2" />
  <g
     inkscape:label="Camada 1"
     inkscape:groupmode="layer"
     id="layer1">
    <ellipse
       style="fill:#ffffff;stroke-width:0.264583"
       id="path1106"
       cx="-35.190319"
       cy="39.3853"
       rx="22.312685"
       ry="23.002455" />
    <path
       id="path962"
       style="fill:#000000;stroke-width:0.153571"
       d="m 39.323757,11.446421 c -2.904339,0.0018 -2.96931,0.02601 -3.189986,0.341065 -0.196873,0.281076 -0.239262,0.879404 -0.239262,3.38894 0,1.824107 0.0642,3.167704 0.160197,3.347083 0.153456,0.286733 0.327491,0.297632 4.031279,0.258382 l 3.871082,-0.04082 0.04134,-3.455086 c 0.03732,-3.112595 0.01552,-3.474246 -0.221176,-3.647323 -0.192482,-0.140747 -1.217967,-0.192236 -3.833873,-0.192236 -0.219747,0 -0.42598,-1.2e-4 -0.619602,0 z m -18.513081,8.90695 c -2.13166,0 -3.635821,0.06284 -3.815788,0.159163 -0.280046,0.149877 -0.296623,0.354864 -0.296623,3.583244 0,1.883392 0.04601,3.470608 0.10232,3.526916 0.05631,0.05631 1.815803,0.10232 3.910355,0.10232 3.607958,0 3.816587,-0.01572 3.9672,-0.29714 0.09456,-0.176692 0.159163,-1.556344 0.159163,-3.40496 0,-2.676346 -0.03538,-3.146571 -0.254248,-3.388423 -0.232134,-0.256501 -0.558817,-0.28112 -3.772379,-0.28112 z m 9.68778,0 c -2.140506,0 -3.648133,0.0628 -3.82819,0.159163 -0.279466,0.149564 -0.297139,0.353247 -0.297139,3.442684 0,1.806096 0.04175,3.393313 0.09302,3.526917 0.08152,0.212436 0.569291,0.242879 3.885549,0.242879 2.744674,0 3.843121,-0.0511 3.976503,-0.184486 0.131757,-0.131757 0.183967,-1.113366 0.183967,-3.444233 0,-2.75896 -0.0371,-3.297365 -0.241329,-3.501595 -0.205391,-0.205396 -0.766903,-0.241329 -3.772379,-0.241329 z m 9.574093,0 c -3.149602,0 -3.652848,0.0329 -3.897436,0.254248 -0.254604,0.23041 -0.280604,0.547321 -0.280604,3.38894 0,1.884676 0.06377,3.253718 0.160197,3.4339 0.153456,0.286731 0.327491,0.298148 4.031279,0.258897 l 3.871082,-0.04134 0.04134,-3.435965 c 0.02897,-2.405335 -0.01108,-3.499402 -0.133842,-3.647323 -0.139767,-0.16841 -0.909728,-0.211356 -3.792017,-0.211356 z m 21.835877,2.150256 c -0.556373,0 -2.181905,3.210726 -2.76004,5.451863 -0.352555,1.366705 -0.387887,1.746705 -0.322977,3.455088 0.07649,2.013032 0.338053,3.097223 1.118277,4.636926 0.202809,0.400219 0.368454,0.756452 0.368454,0.791683 0,0.110721 -1.569691,0.697437 -2.610694,0.975651 -0.924396,0.24705 -3.014007,0.272868 -28.257188,0.348298 l -27.2588014,0.08113 -0.5937622,0.369488 c -1.14957385,0.714616 -1.36146375,1.886193 -1.01544175,5.619811 0.77925285,8.40823 3.77511285,15.135161 8.35607875,18.762162 3.4696416,2.747105 8.8720206,4.38776 15.8279736,4.806942 2.782499,0.167677 3.320359,0.16787 6.063713,10e-4 4.787119,-0.291129 9.332542,-1.159807 12.979569,-2.480985 2.206384,-0.799288 5.937155,-2.631877 7.678084,-3.771344 6.374352,-4.172133 11.200921,-10.330244 14.716416,-18.776633 l 0.671277,-1.612304 1.520319,-0.116271 c 5.154441,-0.393028 9.004959,-2.99225 10.434506,-7.044016 0.206052,-0.584017 0.204726,-0.588616 -0.357601,-1.052131 -1.463452,-1.206304 -4.672285,-1.964587 -7.481197,-1.768369 -0.844642,0.059 -1.732774,0.117319 -1.973524,0.129709 -0.418404,0.02155 -0.45013,-0.02605 -0.717785,-1.072287 -0.511466,-1.999271 -1.828806,-4.194929 -3.415295,-5.692675 -0.895802,-0.845691 -2.636459,-2.04277 -2.970361,-2.04277 z m -31.465781,6.756177 c -1.786655,0 -3.573103,0.05303 -3.772379,0.159681 -0.279716,0.149696 -0.297139,0.35419 -0.297139,3.501594 0,2.394918 0.05193,3.394874 0.183969,3.526917 0.2619,0.261903 7.5092,0.261903 7.771101,0 0.132045,-0.132043 0.183967,-1.131999 0.183967,-3.526917 0,-3.147404 -0.01742,-3.351898 -0.297138,-3.501594 -0.199276,-0.106648 -1.985727,-0.159681 -3.772381,-0.159681 z m -19.836514,0.001 c -2.6334806,0.0046 -3.1489107,0.04832 -3.3419147,0.241329 -0.203686,0.203685 -0.2413288,0.731973 -0.2413288,3.388424 0,1.893594 0.064224,3.266522 0.1607137,3.446817 0.153456,0.286734 0.3274915,0.298148 4.0312778,0.2589 l 3.870565,-0.04083 0.04134,-3.436483 c 0.02897,-2.405335 -0.01108,-3.499403 -0.133842,-3.647323 -0.139863,-0.168529 -0.915461,-0.210839 -3.831291,-0.210839 -0.194925,0 -0.379956,-3.09e-4 -0.555521,0 z m 10.104293,0 c -2.629477,0 -3.695213,0.05099 -3.828191,0.183968 -0.199455,0.199458 -0.276549,6.889937 -0.08165,7.084837 0.05631,0.05631 1.815803,0.10232 3.910355,0.10232 3.607958,0 3.816587,-0.01572 3.9672,-0.29714 0.09475,-0.177041 0.159163,-1.568379 0.159163,-3.444232 0,-2.656451 -0.03764,-3.184739 -0.241329,-3.388424 -0.205827,-0.205827 -0.777565,-0.241329 -3.88555,-0.241329 z m 18.801952,0 c -2.651358,0.0044 -3.107962,0.04622 -3.337263,0.25373 -0.254604,0.23041 -0.280604,0.547323 -0.280604,3.388942 0,1.884675 0.06377,3.253717 0.160197,3.433898 0.153456,0.286734 0.327491,0.298148 4.031279,0.2589 l 3.871082,-0.04083 0.04134,-3.436483 c 0.02897,-2.405335 -0.01108,-3.499403 -0.133842,-3.647323 -0.139767,-0.16841 -0.909728,-0.210839 -3.792017,-0.210839 -0.19685,0 -0.383415,-2.96e-4 -0.560173,0 z m 9.674863,0 c -2.651358,0.0044 -3.107447,0.04622 -3.336748,0.25373 -0.254603,0.23041 -0.28112,0.547323 -0.28112,3.388942 0,1.884675 0.06377,3.253717 0.160197,3.433898 0.153456,0.286734 0.327491,0.298148 4.031279,0.2589 l 3.871079,-0.04083 0.04134,-3.436483 c 0.02897,-2.405335 -0.01108,-3.499403 -0.133842,-3.647323 -0.139766,-0.16841 -0.90973,-0.210839 -3.792019,-0.210839 -0.19685,0 -0.383413,-2.96e-4 -0.56017,0 z M 10.30434,45.180796 a 1.9109321,1.9109321 0 0 1 1.910995,1.910996 1.9109321,1.9109321 0 0 1 -1.910995,1.910992 1.9109321,1.9109321 0 0 1 -1.9109936,-1.910992 1.9109321,1.9109321 0 0 1 1.9109936,-1.910996 z" />
  </g>
</svg>
