<?xml version="1.0" encoding="UTF-8" standalone="no"?>
<!-- Created with Inkscape (http://www.inkscape.org/) -->

<svg
   width="512"
   height="512"
   viewBox="0 0 135.46666 135.46667"
   version="1.1"
   id="svg5"
   inkscape:export-filename="/opt/serjeant-lite/res/misc/eye-shown.svg"
   inkscape:export-xdpi="96"
   inkscape:export-ydpi="96"
   inkscape:version="1.1.2 (0a00cf5339, 2022-02-04)"
   sodipodi:docname="eye-hidden.svg"
   xmlns:inkscape="http://www.inkscape.org/namespaces/inkscape"
   xmlns:sodipodi="http://sodipodi.sourceforge.net/DTD/sodipodi-0.dtd"
   xmlns="http://www.w3.org/2000/svg"
   xmlns:svg="http://www.w3.org/2000/svg">
  <sodipodi:namedview
     id="namedview7"
     pagecolor="#ffffff"
     bordercolor="#666666"
     borderopacity="1.0"
     inkscape:pageshadow="2"
     inkscape:pageopacity="0.0"
     inkscape:pagecheckerboard="0"
     inkscape:document-units="mm"
     showgrid="false"
     units="px"
     inkscape:zoom="0.81134749"
     inkscape:cx="237.25962"
     inkscape:cy="213.84179"
     inkscape:window-width="1680"
     inkscape:window-height="1018"
     inkscape:window-x="4048"
     inkscape:window-y="0"
     inkscape:window-maximized="1"
     inkscape:current-layer="layer1" />
  <defs
     id="defs2" />
  <g
     inkscape:label="Camada 1"
     inkscape:groupmode="layer"
     id="layer1">
    <path
       style="fill:#020202;stroke:none;stroke-width:0.264583"
       d="m 24.877795,35.365478 c -6.7428,6.155001 -13.869511,11.174941 -19.5475216,18.520832 -2.1285728,2.753783 -4.77771591,5.682985 -5.24675282,9.260416 -0.45015726,3.433498 1.35308912,6.074569 3.25155652,8.73125 3.2459611,4.542102 7.0183369,8.500797 10.9593849,12.435416 14.869318,14.845504 36.946415,23.374618 57.943747,21.936608 6.328833,-0.43339 12.127441,-2.06084 18.256249,-3.48747 1.873515,-0.43604 3.326606,1.8108 4.497917,2.98211 2.957247,2.95725 6.479915,8.07535 10.318755,9.79753 2.78844,1.25095 6.08224,-0.22913 6.93499,-3.18294 1.43722,-4.97946 -6.80508,-10.45342 -9.84541,-13.493754 L 67.475709,63.940476 34.138211,30.602978 26.465295,22.930062 c -1.22735,-1.227376 -2.46851,-2.869671 -4.233334,-3.298508 -3.879902,-0.942816 -7.397273,2.618185 -6.056629,6.473507 1.126754,3.240352 5.945213,7.31811 8.702463,9.260417 m 19.049999,-9.260417 c 2.20636,3.132138 5.493808,5.758392 8.202083,8.466667 1.012295,1.012295 2.27912,2.846652 3.704166,3.255168 1.021821,0.292894 2.221706,-0.466725 3.175,-0.758825 2.26695,-0.694531 4.528873,-1.084262 6.879166,-1.362604 5.371306,-0.635794 11.218598,1.152261 15.875,3.71131 9.034197,4.964906 14.992878,15.541096 14.541763,25.846616 -0.108479,2.475706 -0.613039,5.050366 -1.363927,7.408333 -0.308768,0.968904 -1.210204,2.407973 -0.899318,3.439583 0.472281,1.568185 2.731029,3.103298 3.861064,4.233333 l 8.202089,8.202083 c 1.17104,1.171046 2.4757,3.026304 3.96874,3.773752 0.98161,0.491331 1.89204,-0.400315 2.64584,-0.941123 1.92061,-1.378214 3.74359,-2.883694 5.55625,-4.398962 5.21123,-4.356365 9.91261,-9.590087 13.86972,-15.102416 2.01163,-2.802731 3.84016,-5.654675 3.16442,-9.260416 -0.517,-2.75934 -2.3286,-4.953794 -3.97087,-7.14375 -3.08107,-4.108714 -6.52357,-7.753614 -10.15286,-11.377083 C 105.93104,28.866253 83.151213,20.275735 61.654876,22.355969 55.75652,22.926754 49.405198,23.677245 43.927794,26.105061 M 64.036126,46.213394 74.619459,57.06131 85.731958,67.909226 C 88.730746,55.348662 76.595367,43.214871 64.036126,46.213394 m 15.345833,44.185414 c -4.22275,1.376363 -8.452908,2.666471 -12.964583,2.357438 C 51.766339,91.75321 40.595367,80.602875 39.210273,66.057143 c -0.444764,-4.671219 0.912019,-9.124156 2.336271,-13.49375 2.2606,1.0541 4.071408,3.541448 5.820833,5.291667 0.746389,0.746654 1.886214,1.583531 2.176727,2.645833 0.360892,1.319477 -0.372798,2.87311 -0.245269,4.233333 0.443971,4.729956 2.069306,9.01991 5.480844,12.431448 3.368939,3.369204 7.724245,5.123126 12.431447,5.474228 1.350698,0.100807 2.917296,-0.598487 4.233333,-0.238654 1.062302,0.290513 1.899179,1.430338 2.645833,2.176727 1.750219,1.749425 4.237567,3.560233 5.291667,5.820833 z"
       id="path374" />
  </g>
</svg>
