<?xml version="1.0" encoding="UTF-8" standalone="no"?>
<!-- Created with Inkscape (http://www.inkscape.org/) -->

<svg
   width="300"
   height="300"
   viewBox="0 0 79.374999 79.374999"
   version="1.1"
   id="svg5"
   inkscape:version="1.1.2 (0a00cf5339, 2022-02-04)"
   sodipodi:docname="github.svg"
   xmlns:inkscape="http://www.inkscape.org/namespaces/inkscape"
   xmlns:sodipodi="http://sodipodi.sourceforge.net/DTD/sodipodi-0.dtd"
   xmlns="http://www.w3.org/2000/svg"
   xmlns:svg="http://www.w3.org/2000/svg">
  <sodipodi:namedview
     id="namedview7"
     pagecolor="#ffffff"
     bordercolor="#666666"
     borderopacity="1.0"
     inkscape:pageshadow="2"
     inkscape:pageopacity="0.0"
     inkscape:pagecheckerboard="0"
     inkscape:document-units="px"
     showgrid="false"
     units="px"
     width="300px"
     inkscape:zoom="1.1474186"
     inkscape:cx="55.341615"
     inkscape:cy="166.89637"
     inkscape:window-width="1920"
     inkscape:window-height="1048"
     inkscape:window-x="1920"
     inkscape:window-y="0"
     inkscape:window-maximized="1"
     inkscape:current-layer="layer1" />
  <defs
     id="defs2" />
  <g
     inkscape:label="Camada 1"
     inkscape:groupmode="layer"
     id="layer1">
    <path
       style="fill:#000000;stroke-width:0.153297"
       d="M 36.116074,78.779106 C 26.473305,77.784816 18.114533,73.730094 11.435299,66.806809 8.449404,63.71181 6.5252986,60.972348 4.5493269,57.002842 -2.0401943,43.76524 -0.53834179,28.035198 8.4659919,15.980599 9.8968111,14.06508 14.065801,9.8906657 15.962577,8.4742618 c 3.08563,-2.3041847 6.868352,-4.3711443 10.342508,-5.6513715 9.403516,-3.46519565 20.52139,-3.04359089 29.563727,1.1210979 4.768374,2.1961982 8.455723,4.821886 12.132985,8.6396458 5.790973,6.012241 9.408673,13.463587 10.595952,21.824389 0.391221,2.754984 0.391221,7.822496 0,10.577475 -0.953495,6.714472 -3.539616,12.954304 -7.650302,18.458768 -1.412702,1.891682 -5.58971,6.068691 -7.481393,7.481387 -5.398483,4.031552 -11.468229,6.589075 -17.966189,7.570172 -2.346527,0.354291 -7.257378,0.502545 -9.383791,0.283281 z M 31.938742,68.501679 c 0.236135,-0.286682 0.268268,-0.701293 0.268268,-3.461625 0,-2.916008 -0.01883,-3.13011 -0.268268,-3.052952 -1.296737,0.401064 -4.495574,0.358439 -5.845673,-0.0779 -1.835482,-0.593208 -3.179275,-1.808767 -4.050034,-3.66353 -1.021532,-2.175925 -1.754825,-3.141379 -3.17284,-4.17735 -1.426525,-1.042182 -1.609143,-1.527827 -0.671825,-1.786634 1.686747,-0.465736 3.93133,0.84402 5.506201,3.212963 1.259952,1.895234 2.681466,2.830363 4.570698,3.00678 1.509431,0.140954 4.085036,-0.455556 4.085036,-0.94609 0,-0.539689 0.678986,-2.283552 1.163182,-2.987452 0.300807,-0.4373 0.524313,-0.811852 0.496676,-0.832351 -0.02764,-0.02051 -0.629055,-0.122889 -1.336495,-0.227532 -6.092921,-0.901269 -9.970598,-3.935675 -11.41972,-8.936286 -0.761578,-2.628063 -0.918674,-6.832065 -0.333966,-8.937317 0.358109,-1.28939 1.176566,-2.93033 1.973383,-3.956475 l 0.676991,-0.87183 -0.29467,-1.188322 c -0.450747,-1.817718 -0.254149,-4.45183 0.474831,-6.362088 0.151203,-0.396215 0.217086,-0.421564 1.095747,-0.421564 1.50282,0 3.96355,0.954214 6.35404,2.463946 l 0.928953,0.586684 1.911764,-0.41008 c 1.778035,-0.381401 2.174459,-0.41008 5.66753,-0.41008 3.493068,0 3.889492,0.02868 5.667527,0.41008 l 1.911765,0.41008 0.928946,-0.586684 c 2.500418,-1.579154 4.935197,-2.503245 6.40961,-2.432682 l 0.948361,0.04537 0.364923,1.226375 c 0.46288,1.555597 0.534573,4.407246 0.145334,5.780926 l -0.24806,0.875428 0.681883,0.878129 c 0.810977,1.044378 1.610372,2.663469 1.994386,4.03942 0.393805,1.411033 0.389953,5.66517 -0.0068,7.511539 -1.147881,5.341876 -4.195561,8.433109 -9.679857,9.818186 -0.940401,0.237503 -2.127193,0.479039 -2.637311,0.536752 l -0.92748,0.104933 0.598937,0.855016 c 1.174903,1.677228 1.251093,2.148213 1.349242,8.340285 0.09485,5.983955 0.06524,5.806732 1.015408,6.079236 0.591354,0.169599 1.588158,-0.08887 3.439487,-0.891831 C 60.642801,64.175544 67.290627,55.978038 69.210456,46.441807 69.820148,43.413321 69.94686,39.326941 69.524885,36.301509 68.24729,27.141386 62.753469,18.988875 54.75208,14.379498 c -4.710111,-2.713366 -9.497807,-3.98127 -15.033501,-3.98127 -4.960593,0 -9.133401,0.978907 -13.490113,3.164661 -8.849317,4.439703 -14.949736,12.941378 -16.31622,22.738612 -0.421975,3.025432 -0.2952626,7.111812 0.314435,10.140298 1.897824,9.426935 8.419412,17.551061 17.253289,21.492913 2.747626,1.226046 3.805145,1.36051 4.4588,0.56695 z M 29.607349,59.69429 c 0.292371,-0.352286 -0.15085,-0.756068 -0.683245,-0.622449 -0.37629,0.09445 -0.538739,0.513176 -0.294023,0.757887 0.187183,0.187184 0.777402,0.105385 0.977268,-0.135438 z m -2.459131,-0.220237 c 0.353665,-0.225452 -0.01078,-0.682214 -0.590328,-0.739886 -0.397548,-0.03957 -0.482753,0.0064 -0.482753,0.26065 0,0.490922 0.620236,0.767916 1.073081,0.479236 z m 4.752197,-0.07866 c 0.152252,-0.183452 0.152252,-0.276438 0,-0.45989 -0.236408,-0.284857 -0.471015,-0.291056 -0.838741,-0.02219 -0.374153,0.273588 -0.20259,0.712006 0.278622,0.712006 0.203105,0 0.455157,-0.103479 0.560119,-0.229948 z M 25.10211,58.163311 c 0.113914,-0.296844 -0.36184,-0.83742 -0.736994,-0.83742 -0.328369,0 -0.394385,0.593613 -0.09888,0.889119 0.25813,0.258134 0.728136,0.229061 0.835873,-0.05168 z m -1.584334,-1.662957 c 0.101011,-0.263234 -0.299878,-0.86073 -0.57751,-0.86073 -0.318247,0 -0.391667,0.390648 -0.140751,0.748884 0.259682,0.370746 0.59866,0.423528 0.718261,0.111846 z m -1.231895,-1.665536 c 0.110727,-0.308809 -0.182091,-0.728159 -0.508443,-0.728159 -0.383423,0 -0.406848,0.536416 -0.03291,0.754203 0.356533,0.207664 0.459346,0.202716 0.541376,-0.02607 z m -1.269535,-1.407667 c 0,-0.223992 -0.567801,-0.490053 -0.720326,-0.337529 -0.04623,0.04624 -0.04316,0.19048 0.0067,0.320588 0.114418,0.298171 0.713588,0.312395 0.713588,0.01692 z"
       id="path405" />
  </g>
</svg>
