<svg viewBox="0 0 71.81 71.81" xmlns="http://www.w3.org/2000/svg" xmlns:xlink="http://www.w3.org/1999/xlink">
	<defs>
		<style>.cls-1{fill:#000;}.cls-2{fill:#000;}.cls-3{fill:#000;}</style>
	</defs>
	<title>Jira-icon-neutral</title>
	<g>
		<g>
			<path class="cls-1" d="M68.81,0H34.23A15.61,15.61,0,0,0,49.84,15.61h6.37v6.15A15.61,15.61,0,0,0,71.81,37.36V3A3,3,0,0,0,68.81,0Z"/>
			<path class="cls-2" d="M51.7,17.23H17.12A15.61,15.61,0,0,0,32.72,32.83h6.37V39A15.61,15.61,0,0,0,54.7,54.59V20.23A3,3,0,0,0,51.7,17.23Z"/>
			<path class="cls-3" d="M34.58,34.45H0A15.61,15.61,0,0,0,15.61,50.06H22v6.15A15.61,15.61,0,0,0,37.58,71.81V37.45A3,3,0,0,0,34.58,34.45Z"/>
		</g>
	</g>
</svg>