<?xml version="1.0" encoding="UTF-8" standalone="no"?>
<!-- Created with Inkscape (http://www.inkscape.org/) -->

<svg
   width="300"
   height="300"
   viewBox="0 0 79.374999 79.374999"
   version="1.1"
   id="svg5"
   inkscape:version="1.1.2 (0a00cf5339, 2022-02-04)"
   sodipodi:docname="mysql.svg"
   xmlns:inkscape="http://www.inkscape.org/namespaces/inkscape"
   xmlns:sodipodi="http://sodipodi.sourceforge.net/DTD/sodipodi-0.dtd"
   xmlns="http://www.w3.org/2000/svg"
   xmlns:svg="http://www.w3.org/2000/svg">
  <sodipodi:namedview
     id="namedview7"
     pagecolor="#ffffff"
     bordercolor="#666666"
     borderopacity="1.0"
     inkscape:pageshadow="2"
     inkscape:pageopacity="0.0"
     inkscape:pagecheckerboard="0"
     inkscape:document-units="px"
     showgrid="false"
     units="px"
     width="300px"
     inkscape:zoom="2.2948373"
     inkscape:cx="126.15274"
     inkscape:cy="143.14741"
     inkscape:window-width="1920"
     inkscape:window-height="1048"
     inkscape:window-x="1920"
     inkscape:window-y="0"
     inkscape:window-maximized="1"
     inkscape:current-layer="layer1" />
  <defs
     id="defs2" />
  <g
     inkscape:label="Camada 1"
     inkscape:groupmode="layer"
     id="layer1">
    <path
       style="fill:#000000;stroke-width:0.164206"
       d="m 20.476979,78.067255 c -0.390025,-0.19623 -0.645192,-0.48525 -0.806161,-0.91312 l -0.235515,-0.62603 1.586137,-3.200057 c 0.872375,-1.760032 1.586137,-3.307899 1.586137,-3.439705 0,-0.131805 -0.711708,-1.661338 -1.581574,-3.398961 l -1.581572,-3.159315 0.226877,-0.656822 c 0.170581,-0.493843 0.382203,-0.73269 0.852852,-0.962581 0.558187,-0.272647 0.691552,-0.281479 1.231541,-0.08157 0.550138,0.20367 0.703262,0.415745 1.672903,2.316959 0.587035,1.151022 1.104283,2.092769 1.149439,2.092769 0.04516,0 0.562404,-0.941747 1.149439,-2.092769 0.969642,-1.901214 1.122765,-2.113289 1.672903,-2.316959 0.540051,-0.199935 0.672949,-0.191111 1.228372,0.08157 0.448878,0.22037 0.688967,0.482273 0.859715,0.937821 l 0.236907,0.632061 -3.643806,7.300406 c -3.427143,6.866323 -3.677498,7.314483 -4.21045,7.537163 -0.70823,0.29592 -0.70464,0.29605 -1.394144,-0.0509 z M 3.7876713,71.467729 c -0.19073,-0.08048 -0.504773,-0.347183 -0.697873,-0.59267 -0.346608,-0.440641 -0.351091,-0.538901 -0.351091,-7.694805 0,-8.019833 -0.03146,-7.776145 1.062923,-8.233408 0.580998,-0.242757 1.162606,-0.161601 1.608634,0.224464 0.159818,0.138332 1.110045,1.347136 2.111616,2.686233 1.001572,1.339096 1.868361,2.432019 1.926198,2.428715 0.05784,-0.0033 0.9549217,-1.15443 1.9935217,-2.558059 1.0386,-1.403628 2.026625,-2.62754 2.195611,-2.719804 0.41294,-0.225462 1.294003,-0.212246 1.739337,0.02609 0.786393,0.420865 0.827013,0.820249 0.827013,8.131378 0,7.5007 -0.02505,7.713747 -0.964143,8.19937 -0.27357,0.141468 -0.615575,0.257215 -0.760015,0.257215 -0.14444,0 -0.486447,-0.115747 -0.760015,-0.257215 -0.883801,-0.457032 -0.964143,-0.922999 -0.964143,-5.591849 v -4.217558 l -1.067311,1.414999 c -1.123187,1.489075 -1.465892,1.76961 -2.1868097,1.790108 -0.838744,0.02385 -1.16168,-0.219838 -2.276984,-1.718199 l -1.119219,-1.50362 -0.0821,4.545603 -0.0821,4.545605 -0.410514,0.409982 c -0.461098,0.460501 -1.22189,0.647116 -1.74253,0.427425 z m 34.3077457,-0.02568 c -1.112575,-0.185743 -2.568314,-0.838117 -3.410914,-1.528563 -1.485232,-1.217036 -2.112849,-3.402884 -1.230535,-4.285675 0.918601,-0.919094 2.386247,-0.557704 2.78714,0.686302 0.275918,0.856198 0.440827,1.030917 1.391275,1.474034 1.163957,0.542658 2.952592,0.537134 4.133648,-0.01276 1.039845,-0.484153 1.477559,-1.058756 1.20066,-1.576148 -0.22208,-0.414959 -1.239547,-0.898452 -2.426311,-1.152967 0,0 -0.565129,0.0143 -2.884295,-0.580744 -1.383218,-0.356858 -3.142602,-1.31037 -3.73153,-2.022331 -0.526761,-0.636807 -0.976443,-1.901927 -0.964822,-2.714395 0.01807,-1.263437 0.914917,-2.743574 2.184728,-3.605645 2.548961,-1.73048 6.549495,-1.741411 9.086854,-0.02483 1.002576,0.678265 1.592117,1.402371 1.936535,2.378555 0.396981,1.125164 0.326813,1.606743 -0.329774,2.26333 -0.523478,0.523477 -0.644484,0.570563 -1.255639,0.48859 -0.804684,-0.10793 -1.194845,-0.460823 -1.482666,-1.34104 -0.234586,-0.717414 -0.938645,-1.291381 -1.917653,-1.563324 -2.058461,-0.571783 -4.893427,0.378085 -4.750931,1.591822 0.07502,0.638971 1.150119,1.129126 3.509125,1.599867 3.327763,0.664057 4.998778,1.490015 5.866018,2.899486 1.372888,2.231269 0.331633,4.967147 -2.396427,6.29657 -1.68155,0.819443 -3.380426,1.052759 -5.314486,0.72987 z m 15.614388,-0.0058 c -1.611925,-0.362635 -3.253092,-1.879669 -3.67437,-3.396452 -0.09453,-0.340357 -0.168307,-2.47541 -0.168823,-4.885686 -8.21e-4,-3.502173 0.04707,-4.421978 0.262814,-5.05515 0.359862,-1.056138 1.643409,-2.426181 2.729719,-2.913671 0.800341,-0.35916 1.075183,-0.388348 3.656875,-0.388348 2.581692,0 2.856534,0.02919 3.656876,0.388348 1.086309,0.48749 2.369857,1.857533 2.729718,2.913671 0.215516,0.632505 0.26373,1.553184 0.26373,5.036099 0,2.810051 -0.06629,4.483348 -0.194577,4.91153 -0.149964,0.50054 -0.149964,0.720874 0,0.961005 0.276569,0.442854 0.240772,1.406516 -0.06986,1.880592 -0.392791,0.599476 -1.366088,0.846033 -2.030781,0.514441 -0.469407,-0.234172 -0.620071,-0.236331 -1.447736,-0.02075 -1.036344,0.269932 -4.604479,0.303888 -5.713589,0.05437 z m 3.313428,-3.767286 c -0.609748,-0.724643 -0.587504,-1.65653 0.05488,-2.298908 0.613247,-0.613247 1.350856,-0.63464 2.191288,-0.06355 l 0.612837,0.416434 v -3.13398 c 0,-4.409151 -0.01684,-4.431314 -3.366214,-4.431314 -3.407926,0 -3.366213,-0.06206 -3.366213,5.008269 0,4.985437 0.0051,4.994999 2.682936,5.003275 l 1.615602,0.005 -0.425112,-0.505216 z m 10.640393,3.7926 c -0.190731,-0.07706 -0.504774,-0.340968 -0.697873,-0.586455 -0.346374,-0.440342 -0.351091,-0.54188 -0.351091,-7.556447 0,-4.121214 0.06595,-7.283558 0.156877,-7.522722 0.215566,-0.566982 0.865488,-0.955249 1.598997,-0.955249 0.479963,0 0.713728,0.111661 1.071096,0.511628 l 0.45714,0.511627 v 6.144533 6.144532 l 2.887442,0.05164 2.887442,0.05164 0.478771,0.53626 c 0.844599,0.946009 0.548708,2.233359 -0.615022,2.675808 -0.503209,0.19132 -7.39818,0.185376 -7.873779,-0.0068 z M 36.482945,51.315777 C 28.193623,50.809014 21.633989,48.811306 18.427564,45.817089 17.669616,45.109304 17.086586,44.386597 16.771689,43.764519 L 16.285664,42.804375 V 26.219616 9.6348569 l 0.402013,-0.821028 c 1.742549,-3.558787 7.556922,-6.241194 16.01854,-7.390007 2.75921,-0.374611 8.522511,-0.50337498 11.432371,-0.255422 5.796033,0.493886 10.342917,1.626284 13.937385,3.471095 2.305628,1.183332 3.737267,2.467105 4.655136,4.174334 l 0.353133,0.656822 V 26.137513 42.804375 l -0.467722,0.952519 c -1.945013,3.961038 -9.039196,6.763818 -18.990634,7.50285 -2.049003,0.152165 -5.16999,0.176649 -7.142941,0.05603 z m 10.558999,-3.730315 c 6.55452,-1.006612 11.403964,-3.019909 12.513711,-5.195194 0.301194,-0.590389 0.33035,-0.910938 0.289688,-3.184876 l -0.04521,-2.528415 -1.103069,0.646472 c -2.547122,1.492786 -6.621508,2.736932 -11.3035,3.451615 -2.262321,0.345331 -3.094583,0.386901 -7.708609,0.385026 -4.128523,-0.0017 -5.570171,-0.06165 -7.142941,-0.297133 -4.748202,-0.710936 -8.533815,-1.814928 -11.371234,-3.316171 l -1.683108,-0.890511 v 2.514555 c 0,3.1347 0.158166,3.528636 1.928298,4.80269 2.530184,1.821104 7.104689,3.191696 12.792496,3.832833 2.073974,0.233781 10.857298,0.0826 12.833478,-0.220891 z M 46.335277,37.566921 c 5.438267,-0.721959 10.158664,-2.340221 12.284415,-4.211381 1.151831,-1.013884 1.262542,-1.386216 1.262542,-4.246092 0,-1.363625 -0.03842,-2.479318 -0.08537,-2.479318 -0.04695,0 -0.39794,0.197337 -0.779976,0.438529 -2.580608,1.629216 -7.504279,3.086995 -12.681615,3.754714 -9.132951,1.177875 -20.135167,-0.382877 -25.725796,-3.649411 -0.511919,-0.299109 -0.973747,-0.543832 -1.026285,-0.543832 -0.05254,0 -0.09552,1.085057 -0.09552,2.41124 0,2.123361 0.04168,2.497346 0.349145,3.132475 0.449893,0.929357 1.606124,1.837595 3.494932,2.745324 3.241992,1.558047 7.106563,2.450559 12.740682,2.942426 1.5489,0.135221 8.53573,-0.06539 10.262846,-0.294674 z m -1.149439,-9.970366 c 2.378192,-0.219533 6.211927,-0.990064 8.141902,-1.636417 3.147102,-1.053971 5.8433,-2.77142 6.378234,-4.062868 0.117379,-0.283376 0.16854,-1.358005 0.139686,-2.934058 l -0.04553,-2.486911 -1.067336,0.644776 C 54.6387,19.594315 47.461659,21.07323 39.602849,21.063037 31.782504,21.052887 24.792956,19.585458 20.555007,17.064001 l -0.985234,-0.586186 -0.05009,2.325716 c -0.0286,1.327925 0.02522,2.583718 0.125434,2.92709 0.391012,1.339725 2.973322,3.04915 6.27519,4.154024 5.256779,1.759029 12.134528,2.370175 19.265526,1.71191 z m 1.395747,-10.239626 c 5.987905,-0.833428 10.766473,-2.631428 12.55887,-4.725441 0.314994,-0.368 0.621625,-0.929788 0.681399,-1.248416 0.305727,-1.6296621 -1.99708,-3.5530601 -5.903562,-4.9308971 -6.460286,-2.278575 -15.865894,-2.770286 -23.757261,-1.241991 -5.903123,1.143237 -10.19604,3.409677 -10.606932,5.5999141 -0.07772,0.414308 8.21e-4,0.716882 0.333283,1.284221 1.480215,2.525794 7.725638,4.81973 14.953507,5.492401 2.399426,0.223306 9.481174,0.0847 11.740696,-0.229791 z"
       id="path1365"
       sodipodi:nodetypes="cscssscssssssssscssccssssssssssssssscssscccssssssssssccssssssssssssssssscsssssssssssssssscssssccssssssscccccssssssscccssssscccssssssscssccscssssssssssssssssssssscssscscssssssssccss" />
  </g>
</svg>
